<?xml version="1.0" encoding="utf-8"?>
<!-- Generator: Adobe Illustrator 18.1.1, SVG Export Plug-In . SVG Version: 6.00 Build 0)  -->
<svg version="1.1" id="Capa_1" xmlns="http://www.w3.org/2000/svg" xmlns:xlink="http://www.w3.org/1999/xlink" x="0px" y="0px"
	 viewBox="-63 -16.6 113.6 113.6" enable-background="new -63 -16.6 113.6 113.6" xml:space="preserve">
<g>
	<path fill="#FFFFFF" stroke="#71E2F4" stroke-width="4" stroke-miterlimit="10" d="M48.5,56.5C48.5,35.4,25.8,1,11.9,1
		C5.3,1,1.8,8.9,0,19.4c-1.1-1.3-1.7-2.3-2.3-3v-26.9c0-2.6-1.9-4.7-4.3-4.7s-4.3,2.1-4.3,4.7V17c-0.6,1.2-1.3,2.4-2.2,3.4
		c-1.8-10.8-5.2-19-12-19c-13.9,0-36.6,34.4-36.6,55.5c0,21.1-2.6,38.2,11.3,38.2c13.9,0,39.2-17.1,39.2-38.2c0-7.4,0-16.5-0.6-25.2
		c2.1-1.6,4.1-3.4,5.8-5.5c1.3,1.5,2.9,3.2,4.8,5C-1.9,39.8-1.9,49-1.9,56.5c0,21.1,25.2,38.2,39.2,38.2
		C51.2,94.7,48.5,77.6,48.5,56.5z"/>
</g>
</svg>
